<svg xmlns="http://www.w3.org/2000/svg" viewBox="0 0 1024 1024"><defs><style>.cls-1{fill:#212e3f;}.cls-2{fill:none;stroke:#131a24;stroke-miterlimit:10;stroke-width:40px;}.cls-3{fill:#131a24;}</style></defs><title>Artboard 1128</title><g id="Art"><circle class="cls-1" cx="512" cy="512" r="483.67"/><path id="Eyes" class="cls-2" d="M651.58,506.51l-135.44,275a7.23,7.23,0,0,1-13,0l-135.44-275"/><path class="cls-3" d="M509.84,831.51a34.52,34.52,0,0,1-24.56-10.17L261.85,597.9a19.86,19.86,0,0,1,1.52-29.47L449.66,417,285.34,288v221.5L254,535.4v-271a19.87,19.87,0,0,1,32.14-15.64L480.35,401.17a19.87,19.87,0,0,1,.27,31.06L293,584.73,507.47,799.16a3.37,3.37,0,0,0,4.75,0L726.77,584.6,543.17,432.13a19.88,19.88,0,0,1,.43-30.92L737.89,248.75A19.87,19.87,0,0,1,770,264.39v271l-31.37-25.88V288L574.17,417.09,756.52,568.53a19.89,19.89,0,0,1,1.36,29.34L534.4,821.34A34.5,34.5,0,0,1,509.84,831.51Z"/></g></svg>